0
SECTION
2
ENTITIES
0
LINE
8
FCrtYd
62
7
10
137.224
20
-126.465
11
137.224
21
-113.565
0
LINE
8
FCrtYd
62
7
10
137.224
20
-113.565
11
119.824
21
-113.565
0
LINE
8
FCrtYd
62
7
10
119.824
20
-113.565
11
119.824
21
-126.465
0
LINE
8
FCrtYd
62
7
10
119.824
20
-126.465
11
137.224
21
-126.465
0
LINE
8
FFab
62
5
10
120.824
20
-125.465
11
136.224
21
-125.465
0
LINE
8
FFab
62
5
10
136.224
20
-125.465
11
136.224
21
-114.565
0
LINE
8
FFab
62
5
10
120.824
20
-114.565
11
120.824
21
-125.465
0
LINE
8
FFab
62
5
10
136.224
20
-114.565
11
120.824
21
-114.565
0
LINE
8
FCrtYd
62
7
10
161.224
20
-117.446
11
161.224
21
-120.806
0
LINE
8
FCrtYd
62
7
10
161.224
20
-120.806
11
159.324
21
-120.806
0
LINE
8
FCrtYd
62
7
10
159.324
20
-120.806
11
159.324
21
-117.446
0
LINE
8
FCrtYd
62
7
10
159.324
20
-117.446
11
161.224
21
-117.446
0
LINE
8
FFab
62
5
10
159.649
20
-120.126
11
159.649
21
-118.126
0
LINE
8
FFab
62
5
10
160.899
20
-118.126
11
160.899
21
-120.126
0
LINE
8
FFab
62
5
10
160.899
20
-120.126
11
159.649
21
-120.126
0
LINE
8
FFab
62
5
10
159.649
20
-118.126
11
160.899
21
-118.126
0
LINE
8
FCrtYd
62
7
10
157.745
20
-86.51
11
157.745
21
-70.47
0
LINE
8
FCrtYd
62
7
10
165.435
20
-70.47
11
165.435
21
-86.51
0
LINE
8
FCrtYd
62
7
10
165.435
20
-86.51
11
157.745
21
-86.51
0
LINE
8
FCrtYd
62
7
10
157.745
20
-70.47
11
165.435
21
-70.47
0
LINE
8
FFab
62
5
10
164.175
20
-81.99
11
164.935
21
-81.34
0
LINE
8
FFab
62
5
10
164.935
20
-85.04
11
159.215
21
-85.04
0
LINE
8
FFab
62
5
10
164.935
20
-71.94
11
164.935
21
-81.34
0
LINE
8
FFab
62
5
10
159.215
20
-71.94
11
164.935
21
-71.94
0
LINE
8
FFab
62
5
10
164.935
20
-82.64
11
164.175
21
-81.99
0
LINE
8
FFab
62
5
10
159.215
20
-85.04
11
159.215
21
-71.94
0
LINE
8
FFab
62
5
10
164.935
20
-82.64
11
164.935
21
-85.04
0
LINE
8
FCrtYd
62
7
10
208.3
20
-104.03
11
208.3
21
-84.03
0
LINE
8
FCrtYd
62
7
10
198.5
20
-84.03
11
198.5
21
-104.03
0
LINE
8
FCrtYd
62
7
10
198.5
20
-104.03
11
208.3
21
-104.03
0
LINE
8
FCrtYd
62
7
10
208.3
20
-84.03
11
198.5
21
-84.03
0
LINE
8
FFab
62
5
10
205.22
20
-101.035
11
201.6
21
-101.035
0
LINE
8
FFab
62
5
10
201.6
20
-99.765
11
205.22
21
-99.765
0
LINE
8
FFab
62
5
10
205.22
20
-98.495
11
201.6
21
-98.495
0
LINE
8
FFab
62
5
10
201.6
20
-99.695
11
202.806667
21
-99.695
0
LINE
8
FFab
62
5
10
201.6
20
-93.515
11
202.806667
21
-93.515
0
LINE
8
FFab
62
5
10
201.6
20
-96.755
11
202.806667
21
-96.755
0
LINE
8
FFab
62
5
10
201.6
20
-102.035
11
202.806667
21
-102.035
0
LINE
8
FFab
62
5
10
201.6
20
-86.095
11
202.806667
21
-86.095
0
LINE
8
FFab
62
5
10
201.6
20
-91.175
11
202.806667
21
-91.175
0
LINE
8
FFab
62
5
10
201.6
20
-89.535
11
202.806667
21
-89.535
0
LINE
8
FFab
62
5
10
201.6
20
-88.935
11
202.806667
21
-88.935
0
LINE
8
FFab
62
5
10
201.6
20
-88.535
11
202.806667
21
-88.535
0
LINE
8
FFab
62
5
10
201.6
20
-88.435
11
202.806667
21
-88.435
0
LINE
8
FFab
62
5
10
201.6
20
-93.415
11
201.6
21
-94.685
0
LINE
8
FFab
62
5
10
201.6
20
-93.815
11
202.806667
21
-93.815
0
LINE
8
FFab
62
5
10
205.22
20
-89.605
11
205.22
21
-88.335
0
LINE
8
FFab
62
5
10
201.6
20
-89.235
11
202.806667
21
-89.235
0
LINE
8
FFab
62
5
10
201.6
20
-101.835
11
202.806667
21
-101.835
0
LINE
8
FFab
62
5
10
201.6
20
-101.535
11
202.806667
21
-101.535
0
LINE
8
FFab
62
5
10
201.6
20
-91.575
11
202.806667
21
-91.575
0
LINE
8
FFab
62
5
10
201.6
20
-94.515
11
202.806667
21
-94.515
0
LINE
8
FFab
62
5
10
201.6
20
-88.735
11
202.806667
21
-88.735
0
LINE
8
FFab
62
5
10
201.6
20
-101.035
11
201.6
21
-102.305
0
LINE
8
FFab
62
5
10
201.6
20
-102.235
11
202.806667
21
-102.235
0
LINE
8
FFab
62
5
10
201.6
20
-94.215
11
202.806667
21
-94.215
0
LINE
8
FFab
62
5
10
201.6
20
-91.675
11
202.806667
21
-91.675
0
LINE
8
FFab
62
5
10
201.6
20
-91.075
11
202.806667
21
-91.075
0
LINE
8
FFab
62
5
10
201.6
20
-98.995
11
202.806667
21
-98.995
0
LINE
8
FFab
62
5
10
201.6
20
-86.495
11
202.806667
21
-86.495
0
LINE
8
FFab
62
5
10
201.6
20
-94.115
11
202.806667
21
-94.115
0
LINE
8
FFab
62
5
10
201.6
20
-96.355
11
202.806667
21
-96.355
0
LINE
8
FFab
62
5
10
206.76
20
-84.38
11
206.76
21
-103.72
0
LINE
8
FFab
62
5
10
206.76
20
-103.72
11
200.06
21
-103.72
0
LINE
8
FFab
62
5
10
205.22
20
-88.335
11
201.6
21
-88.335
0
LINE
8
FFab
62
5
10
201.6
20
-97.155
11
202.806667
21
-97.155
0
LINE
8
FFab
62
5
10
201.6
20
-93.715
11
202.806667
21
-93.715
0
LINE
8
FFab
62
5
10
201.6
20
-88.835
11
202.806667
21
-88.835
0
LINE
8
FFab
62
5
10
202.806667
20
-90.875
11
202.806667
21
-92.145
0
LINE
8
FFab
62
5
10
201.6
20
-89.335
11
202.806667
21
-89.335
0
LINE
8
FFab
62
5
10
201.6
20
-102.135
11
202.806667
21
-102.135
0
LINE
8
FFab
62
5
10
201.6
20
-86.195
11
202.806667
21
-86.195
0
LINE
8
FFab
62
5
10
201.6
20
-86.595
11
202.806667
21
-86.595
0
LINE
8
FFab
62
5
10
201.6
20
-89.605
11
205.22
21
-89.605
0
LINE
8
FFab
62
5
10
202.806667
20
-101.035
11
202.806667
21
-102.305
0
LINE
8
FFab
62
5
10
201.6
20
-94.015
11
202.806667
21
-94.015
0
LINE
8
FFab
62
5
10
200.06
20
-85.38
11
201.06
21
-84.38
0
LINE
8
FFab
62
5
10
201.6
20
-98.495
11
201.6
21
-99.765
0
LINE
8
FFab
62
5
10
201.6
20
-101.735
11
202.806667
21
-101.735
0
LINE
8
FFab
62
5
10
201.6
20
-96.655
11
202.806667
21
-96.655
0
LINE
8
FFab
62
5
10
201.6
20
-89.435
11
202.806667
21
-89.435
0
LINE
8
FFab
62
5
10
202.806667
20
-85.795
11
202.806667
21
-87.065
0
LINE
8
FFab
62
5
10
201.6
20
-95.955
11
201.6
21
-97.225
0
LINE
8
FFab
62
5
10
201.6
20
-86.895
11
202.806667
21
-86.895
0
LINE
8
FFab
62
5
10
201.6
20
-91.775
11
202.806667
21
-91.775
0
LINE
8
FFab
62
5
10
205.22
20
-99.765
11
205.22
21
-98.495
0
LINE
8
FFab
62
5
10
201.6
20
-86.695
11
202.806667
21
-86.695
0
LINE
8
FFab
62
5
10
201.6
20
-96.455
11
202.806667
21
-96.455
0
LINE
8
FFab
62
5
10
201.6
20
-90.975
11
202.806667
21
-90.975
0
LINE
8
FFab
62
5
10
205.22
20
-85.795
11
201.6
21
-85.795
0
LINE
8
FFab
62
5
10
201.6
20
-85.795
11
201.6
21
-87.065
0
LINE
8
FFab
62
5
10
201.6
20
-98.895
11
202.806667
21
-98.895
0
LINE
8
FFab
62
5
10
201.6
20
-94.615
11
202.806667
21
-94.615
0
LINE
8
FFab
62
5
10
201.6
20
-96.955
11
202.806667
21
-96.955
0
LINE
8
FFab
62
5
10
201.6
20
-86.795
11
202.806667
21
-86.795
0
LINE
8
FFab
62
5
10
201.6
20
-92.075
11
202.806667
21
-92.075
0
LINE
8
FFab
62
5
10
201.6
20
-92.145
11
205.22
21
-92.145
0
LINE
8
FFab
62
5
10
201.6
20
-94.685
11
205.22
21
-94.685
0
LINE
8
FFab
62
5
10
201.6
20
-102.305
11
205.22
21
-102.305
0
LINE
8
FFab
62
5
10
202.806667
20
-88.335
11
202.806667
21
-89.605
0
LINE
8
FFab
62
5
10
202.806667
20
-98.495
11
202.806667
21
-99.765
0
LINE
8
FFab
62
5
10
201.6
20
-91.375
11
202.806667
21
-91.375
0
LINE
8
FFab
62
5
10
201.6
20
-89.035
11
202.806667
21
-89.035
0
LINE
8
FFab
62
5
10
201.6
20
-96.855
11
202.806667
21
-96.855
0
LINE
8
FFab
62
5
10
201.6
20
-101.235
11
202.806667
21
-101.235
0
LINE
8
FFab
62
5
10
201.06
20
-84.38
11
206.76
21
-84.38
0
LINE
8
FFab
62
5
10
201.6
20
-86.295
11
202.806667
21
-86.295
0
LINE
8
FFab
62
5
10
201.6
20
-91.475
11
202.806667
21
-91.475
0
LINE
8
FFab
62
5
10
201.6
20
-99.295
11
202.806667
21
-99.295
0
LINE
8
FFab
62
5
10
201.6
20
-96.255
11
202.806667
21
-96.255
0
LINE
8
FFab
62
5
10
202.806667
20
-93.415
11
202.806667
21
-94.685
0
LINE
8
FFab
62
5
10
205.22
20
-95.955
11
201.6
21
-95.955
0
LINE
8
FFab
62
5
10
201.6
20
-97.225
11
205.22
21
-97.225
0
LINE
8
FFab
62
5
10
201.6
20
-101.935
11
202.806667
21
-101.935
0
LINE
8
FFab
62
5
10
201.6
20
-101.335
11
202.806667
21
-101.335
0
LINE
8
FFab
62
5
10
201.6
20
-96.155
11
202.806667
21
-96.155
0
LINE
8
FFab
62
5
10
201.6
20
-99.595
11
202.806667
21
-99.595
0
LINE
8
FFab
62
5
10
201.6
20
-90.875
11
201.6
21
-92.145
0
LINE
8
FFab
62
5
10
201.6
20
-86.395
11
202.806667
21
-86.395
0
LINE
8
FFab
62
5
10
205.22
20
-93.415
11
201.6
21
-93.415
0
LINE
8
FFab
62
5
10
201.6
20
-101.635
11
202.806667
21
-101.635
0
LINE
8
FFab
62
5
10
201.6
20
-85.895
11
202.806667
21
-85.895
0
LINE
8
FFab
62
5
10
201.6
20
-91.875
11
202.806667
21
-91.875
0
LINE
8
FFab
62
5
10
201.6
20
-93.915
11
202.806667
21
-93.915
0
LINE
8
FFab
62
5
10
205.22
20
-92.145
11
205.22
21
-90.875
0
LINE
8
FFab
62
5
10
201.6
20
-86.995
11
202.806667
21
-86.995
0
LINE
8
FFab
62
5
10
205.22
20
-102.305
11
205.22
21
-101.035
0
LINE
8
FFab
62
5
10
201.6
20
-93.615
11
202.806667
21
-93.615
0
LINE
8
FFab
62
5
10
201.6
20
-94.315
11
202.806667
21
-94.315
0
LINE
8
FFab
62
5
10
201.6
20
-101.135
11
202.806667
21
-101.135
0
LINE
8
FFab
62
5
10
201.6
20
-99.195
11
202.806667
21
-99.195
0
LINE
8
FFab
62
5
10
201.6
20
-98.695
11
202.806667
21
-98.695
0
LINE
8
FFab
62
5
10
205.22
20
-94.685
11
205.22
21
-93.415
0
LINE
8
FFab
62
5
10
201.6
20
-96.555
11
202.806667
21
-96.555
0
LINE
8
FFab
62
5
10
205.22
20
-90.875
11
201.6
21
-90.875
0
LINE
8
FFab
62
5
10
201.6
20
-99.395
11
202.806667
21
-99.395
0
LINE
8
FFab
62
5
10
200.06
20
-103.72
11
200.06
21
-85.38
0
LINE
8
FFab
62
5
10
201.6
20
-89.135
11
202.806667
21
-89.135
0
LINE
8
FFab
62
5
10
201.6
20
-94.415
11
202.806667
21
-94.415
0
LINE
8
FFab
62
5
10
202.806667
20
-95.955
11
202.806667
21
-97.225
0
LINE
8
FFab
62
5
10
205.22
20
-97.225
11
205.22
21
-95.955
0
LINE
8
FFab
62
5
10
201.6
20
-99.495
11
202.806667
21
-99.495
0
LINE
8
FFab
62
5
10
201.6
20
-91.975
11
202.806667
21
-91.975
0
LINE
8
FFab
62
5
10
201.6
20
-88.335
11
201.6
21
-89.605
0
LINE
8
FFab
62
5
10
201.6
20
-97.055
11
202.806667
21
-97.055
0
LINE
8
FFab
62
5
10
201.6
20
-85.995
11
202.806667
21
-85.995
0
LINE
8
FFab
62
5
10
205.22
20
-87.065
11
205.22
21
-85.795
0
LINE
8
FFab
62
5
10
201.6
20
-87.065
11
205.22
21
-87.065
0
LINE
8
FFab
62
5
10
201.6
20
-101.435
11
202.806667
21
-101.435
0
LINE
8
FFab
62
5
10
201.6
20
-88.635
11
202.806667
21
-88.635
0
LINE
8
FFab
62
5
10
201.6
20
-98.795
11
202.806667
21
-98.795
0
LINE
8
FFab
62
5
10
201.6
20
-91.275
11
202.806667
21
-91.275
0
LINE
8
FFab
62
5
10
201.6
20
-98.595
11
202.806667
21
-98.595
0
LINE
8
FFab
62
5
10
201.6
20
-99.095
11
202.806667
21
-99.095
0
LINE
8
FFab
62
5
10
201.6
20
-96.055
11
202.806667
21
-96.055
0
CIRCLE
8
Cmts
62
1
10
83.59
20
-135.46
40
3.0
0
CIRCLE
8
FCrtYd
62
7
10
83.59
20
-135.46
40
3.25
0
CIRCLE
8
FCrtYd
62
7
10
165.95
20
-124.25
40
1.25
0
LINE
8
FCrtYd
62
7
10
198.99
20
-111.885
11
204.49
21
-111.885
0
LINE
8
FCrtYd
62
7
10
204.49
20
-119.335
11
198.99
21
-119.335
0
LINE
8
FCrtYd
62
7
10
204.49
20
-111.885
11
204.49
21
-119.335
0
LINE
8
FCrtYd
62
7
10
198.99
20
-119.335
11
198.99
21
-111.885
0
LINE
8
FFab
62
5
10
202.92
20
-113.66
11
204.19
21
-114.93
0
LINE
8
FFab
62
5
10
199.29
20
-117.56
11
199.29
21
-113.66
0
LINE
8
FFab
62
5
10
204.19
20
-117.56
11
199.29
21
-117.56
0
LINE
8
FFab
62
5
10
204.19
20
-113.66
11
204.19
21
-117.56
0
LINE
8
FFab
62
5
10
199.29
20
-113.66
11
204.19
21
-113.66
0
CIRCLE
8
FCrtYd
62
7
10
176.77
20
-91.59
40
1.25
0
LINE
8
FCrtYd
62
7
10
154.684
20
-113.922
11
154.684
21
-125.092
0
LINE
8
FCrtYd
62
7
10
154.684
20
-125.092
11
149.354
21
-125.092
0
LINE
8
FCrtYd
62
7
10
149.354
20
-125.092
11
149.354
21
-113.922
0
LINE
8
FCrtYd
62
7
10
149.354
20
-113.922
11
154.684
21
-113.922
0
LINE
8
FFab
62
5
10
149.604
20
-114.172
11
154.434
21
-114.172
0
LINE
8
FFab
62
5
10
154.434
20
-114.172
11
154.434
21
-124.842
0
LINE
8
FFab
62
5
10
154.434
20
-124.842
11
149.604
21
-124.842
0
LINE
8
FFab
62
5
10
150.874
20
-124.842
11
149.604
21
-123.572
0
LINE
8
FFab
62
5
10
149.604
20
-124.842
11
149.604
21
-114.172
0
LINE
8
FCrtYd
62
7
10
102.171
20
-113.257
11
119.571
21
-113.257
0
LINE
8
FCrtYd
62
7
10
102.171
20
-100.357
11
102.171
21
-113.257
0
LINE
8
FCrtYd
62
7
10
119.571
20
-100.357
11
102.171
21
-100.357
0
LINE
8
FCrtYd
62
7
10
119.571
20
-113.257
11
119.571
21
-100.357
0
LINE
8
FFab
62
5
10
118.571
20
-101.357
11
103.171
21
-101.357
0
LINE
8
FFab
62
5
10
103.171
20
-112.257
11
118.571
21
-112.257
0
LINE
8
FFab
62
5
10
118.571
20
-112.257
11
118.571
21
-101.357
0
LINE
8
FFab
62
5
10
103.171
20
-101.357
11
103.171
21
-112.257
0
LINE
8
FCrtYd
62
7
10
191.329
20
-75.769
11
191.329
21
-88.569
0
LINE
8
FCrtYd
62
7
10
177.479
20
-88.569
11
177.479
21
-75.769
0
LINE
8
FCrtYd
62
7
10
177.479
20
-75.769
11
191.329
21
-75.769
0
LINE
8
FCrtYd
62
7
10
191.329
20
-88.569
11
177.479
21
-88.569
0
LINE
8
FFab
62
5
10
178.404
20
-76.169
11
190.404
21
-76.169
0
LINE
8
FFab
62
5
10
190.404
20
-88.169
11
178.404
21
-88.169
0
LINE
8
FFab
62
5
10
178.404
20
-88.169
11
178.404
21
-76.169
0
LINE
8
FFab
62
5
10
190.404
20
-76.169
11
190.404
21
-88.169
0
CIRCLE
8
FCrtYd
62
7
10
212.31
20
-118.04
40
1.25
0
CIRCLE
8
FCrtYd
62
7
10
172.75
20
-91.49
40
1.25
0
LINE
8
FCrtYd
62
7
10
207.547
20
-120.323
11
207.547
21
-123.683
0
LINE
8
FCrtYd
62
7
10
205.647
20
-120.323
11
207.547
21
-120.323
0
LINE
8
FCrtYd
62
7
10
205.647
20
-123.683
11
205.647
21
-120.323
0
LINE
8
FCrtYd
62
7
10
207.547
20
-123.683
11
205.647
21
-123.683
0
LINE
8
FFab
62
5
10
207.222
20
-121.003
11
207.222
21
-123.003
0
LINE
8
FFab
62
5
10
205.972
20
-121.003
11
207.222
21
-121.003
0
LINE
8
FFab
62
5
10
207.222
20
-123.003
11
205.972
21
-123.003
0
LINE
8
FFab
62
5
10
205.972
20
-123.003
11
205.972
21
-121.003
0
CIRCLE
8
FCrtYd
62
7
10
173.04
20
-65.09
40
1.25
0
LINE
8
FCrtYd
62
7
10
191.554
20
-74.7
11
184.834
21
-74.7
0
LINE
8
FCrtYd
62
7
10
184.834
20
-74.7
11
184.834
21
-65.0
0
LINE
8
FCrtYd
62
7
10
184.834
20
-65.0
11
191.554
21
-65.0
0
LINE
8
FCrtYd
62
7
10
191.554
20
-65.0
11
191.554
21
-74.7
0
LINE
8
FFab
62
5
10
185.242
20
-73.82
11
185.242
21
-65.88
0
LINE
8
FFab
62
5
10
191.146
20
-65.88
11
191.146
21
-73.82
0
LINE
8
FFab
62
5
10
191.146
20
-73.82
11
185.242
21
-73.82
0
LINE
8
FFab
62
5
10
185.242
20
-65.88
11
191.146
21
-65.88
0
LINE
8
FFab
62
5
10
186.342
20
-73.82
11
185.242
21
-72.72
0
LINE
8
FCrtYd
62
7
10
185.5275
20
-98.3
11
169.6525
21
-98.3
0
LINE
8
FCrtYd
62
7
10
169.6525
20
-95.24
11
185.5275
21
-95.24
0
LINE
8
FCrtYd
62
7
10
169.6525
20
-98.3
11
169.6525
21
-95.24
0
LINE
8
FCrtYd
62
7
10
185.5275
20
-95.24
11
185.5275
21
-98.3
0
LINE
8
FFab
62
5
10
175.4125
20
-96.77
11
176.5925
21
-95.59
0
LINE
8
FFab
62
5
10
175.4125
20
-95.59
11
179.7675
21
-95.59
0
LINE
8
FFab
62
5
10
179.7685
20
-96.77
11
184.4905
21
-96.77
0
LINE
8
FFab
62
5
10
175.4125
20
-97.95
11
175.4125
21
-95.59
0
LINE
8
FFab
62
5
10
179.7675
20
-95.59
11
179.7675
21
-97.95
0
LINE
8
FFab
62
5
10
179.7675
20
-97.95
11
175.4125
21
-97.95
0
LINE
8
FFab
62
5
10
170.6905
20
-96.77
11
175.4125
21
-96.77
0
CIRCLE
8
FCrtYd
62
7
10
166.42
20
-94.61
40
1.25
0
LINE
8
FCrtYd
62
7
10
137.604
20
-100.357
11
137.604
21
-113.257
0
LINE
8
FCrtYd
62
7
10
155.004
20
-100.357
11
137.604
21
-100.357
0
LINE
8
FCrtYd
62
7
10
137.604
20
-113.257
11
155.004
21
-113.257
0
LINE
8
FCrtYd
62
7
10
155.004
20
-113.257
11
155.004
21
-100.357
0
LINE
8
FFab
62
5
10
154.004
20
-112.257
11
154.004
21
-101.357
0
LINE
8
FFab
62
5
10
154.004
20
-101.357
11
138.604
21
-101.357
0
LINE
8
FFab
62
5
10
138.604
20
-112.257
11
154.004
21
-112.257
0
LINE
8
FFab
62
5
10
138.604
20
-101.357
11
138.604
21
-112.257
0
LINE
8
FFab
62
5
10
195.75
20
-125.17
11
170.75
21
-125.17
0
LINE
8
FFab
62
5
10
170.75
20
-125.17
11
170.75
21
-101.67
0
LINE
8
FFab
62
5
10
172.25
20
-100.17
11
195.75
21
-100.17
0
LINE
8
FFab
62
5
10
195.75
20
-100.17
11
195.75
21
-125.17
0
ARC
8
FFab
62
5
10
170.749997
20
-101.669997
30
0
40
1.14805
50
67.499877
51
78.499877
0
CIRCLE
8
FCrtYd
62
7
10
200.31
20
-108.45
40
1.25
0
CIRCLE
8
Cmts
62
1
10
207.518
20
-60.452
40
3.0
0
CIRCLE
8
FCrtYd
62
7
10
207.518
20
-60.452
40
3.25
0
LINE
8
FCrtYd
62
7
10
163.095
20
-87.877
11
156.945
21
-87.877
0
LINE
8
FCrtYd
62
7
10
156.945
20
-96.527
11
163.095
21
-96.527
0
LINE
8
FCrtYd
62
7
10
163.095
20
-96.527
11
163.095
21
-87.877
0
LINE
8
FCrtYd
62
7
10
156.945
20
-87.877
11
156.945
21
-96.527
0
LINE
8
FFab
62
5
10
158.745
20
-88.407
11
162.555
21
-88.407
0
LINE
8
FFab
62
5
10
157.475
20
-96.027
11
157.475
21
-89.677
0
LINE
8
FFab
62
5
10
162.555
20
-96.027
11
157.475
21
-96.027
0
LINE
8
FFab
62
5
10
157.475
20
-89.677
11
158.745
21
-88.407
0
LINE
8
FFab
62
5
10
162.555
20
-88.407
11
162.555
21
-96.027
0
LINE
8
FCrtYd
62
7
10
119.824
20
-100.357
11
119.824
21
-113.257
0
LINE
8
FCrtYd
62
7
10
137.224
20
-113.257
11
137.224
21
-100.357
0
LINE
8
FCrtYd
62
7
10
137.224
20
-100.357
11
119.824
21
-100.357
0
LINE
8
FCrtYd
62
7
10
119.824
20
-113.257
11
137.224
21
-113.257
0
LINE
8
FFab
62
5
10
136.224
20
-101.357
11
120.824
21
-101.357
0
LINE
8
FFab
62
5
10
120.824
20
-101.357
11
120.824
21
-112.257
0
LINE
8
FFab
62
5
10
136.224
20
-112.257
11
136.224
21
-101.357
0
LINE
8
FFab
62
5
10
120.824
20
-112.257
11
136.224
21
-112.257
0
LINE
8
FCrtYd
62
7
10
202.912
20
-123.418
11
199.552
21
-123.418
0
LINE
8
FCrtYd
62
7
10
199.552
20
-123.418
11
199.552
21
-121.518
0
LINE
8
FCrtYd
62
7
10
202.912
20
-121.518
11
202.912
21
-123.418
0
LINE
8
FCrtYd
62
7
10
199.552
20
-121.518
11
202.912
21
-121.518
0
LINE
8
FFab
62
5
10
202.232
20
-121.843
11
202.232
21
-123.093
0
LINE
8
FFab
62
5
10
200.232
20
-121.843
11
202.232
21
-121.843
0
LINE
8
FFab
62
5
10
202.232
20
-123.093
11
200.232
21
-123.093
0
LINE
8
FFab
62
5
10
200.232
20
-123.093
11
200.232
21
-121.843
0
LINE
8
FCrtYd
62
7
10
174.026
20
-68.277
11
175.986
21
-68.277
0
LINE
8
FCrtYd
62
7
10
174.026
20
-71.677
11
174.026
21
-68.277
0
LINE
8
FCrtYd
62
7
10
175.986
20
-68.277
11
175.986
21
-71.677
0
LINE
8
FCrtYd
62
7
10
175.986
20
-71.677
11
174.026
21
-71.677
0
LINE
8
FFab
62
5
10
175.631
20
-68.977
11
175.631
21
-70.977
0
LINE
8
FFab
62
5
10
175.631
20
-70.977
11
174.381
21
-70.977
0
LINE
8
FFab
62
5
10
174.381
20
-68.977
11
175.631
21
-68.977
0
LINE
8
FFab
62
5
10
174.381
20
-70.977
11
174.381
21
-68.977
0
LINE
8
FCrtYd
62
7
10
194.629
20
-67.354
11
202.079
21
-67.354
0
LINE
8
FCrtYd
62
7
10
202.079
20
-67.354
11
202.079
21
-72.854
0
LINE
8
FCrtYd
62
7
10
194.629
20
-72.854
11
194.629
21
-67.354
0
LINE
8
FCrtYd
62
7
10
202.079
20
-72.854
11
194.629
21
-72.854
0
LINE
8
FFab
62
5
10
196.404
20
-68.924
11
197.674
21
-67.654
0
LINE
8
FFab
62
5
10
200.304
20
-67.654
11
200.304
21
-72.554
0
LINE
8
FFab
62
5
10
200.304
20
-72.554
11
196.404
21
-72.554
0
LINE
8
FFab
62
5
10
196.404
20
-72.554
11
196.404
21
-67.654
0
LINE
8
FFab
62
5
10
196.404
20
-67.654
11
200.304
21
-67.654
0
LINE
8
FCrtYd
62
7
10
171.486
20
-68.277
11
173.446
21
-68.277
0
LINE
8
FCrtYd
62
7
10
173.446
20
-71.677
11
171.486
21
-71.677
0
LINE
8
FCrtYd
62
7
10
173.446
20
-68.277
11
173.446
21
-71.677
0
LINE
8
FCrtYd
62
7
10
171.486
20
-71.677
11
171.486
21
-68.277
0
LINE
8
FFab
62
5
10
173.091
20
-68.977
11
173.091
21
-70.977
0
LINE
8
FFab
62
5
10
173.091
20
-70.977
11
171.841
21
-70.977
0
LINE
8
FFab
62
5
10
171.841
20
-68.977
11
173.091
21
-68.977
0
LINE
8
FFab
62
5
10
171.841
20
-70.977
11
171.841
21
-68.977
0
LINE
8
FCrtYd
62
7
10
102.171
20
-113.565
11
102.171
21
-126.465
0
LINE
8
FCrtYd
62
7
10
119.571
20
-126.465
11
119.571
21
-113.565
0
LINE
8
FCrtYd
62
7
10
119.571
20
-113.565
11
102.171
21
-113.565
0
LINE
8
FCrtYd
62
7
10
102.171
20
-126.465
11
119.571
21
-126.465
0
LINE
8
FFab
62
5
10
118.571
20
-114.565
11
103.171
21
-114.565
0
LINE
8
FFab
62
5
10
118.571
20
-125.465
11
118.571
21
-114.565
0
LINE
8
FFab
62
5
10
103.171
20
-114.565
11
103.171
21
-125.465
0
LINE
8
FFab
62
5
10
103.171
20
-125.465
11
118.571
21
-125.465
0
LINE
8
FCrtYd
62
7
10
177.698
20
-75.269
11
177.698
21
-64.419
0
LINE
8
FCrtYd
62
7
10
177.698
20
-64.419
11
183.998
21
-64.419
0
LINE
8
FCrtYd
62
7
10
183.998
20
-64.419
11
183.998
21
-75.269
0
LINE
8
FCrtYd
62
7
10
183.998
20
-75.269
11
177.698
21
-75.269
0
LINE
8
FFab
62
5
10
182.998
20
-65.819
11
182.998
21
-73.119
0
LINE
8
FFab
62
5
10
182.998
20
-73.119
11
178.698
21
-73.119
0
LINE
8
FFab
62
5
10
178.698
20
-73.119
11
178.698
21
-65.819
0
LINE
8
FFab
62
5
10
178.698
20
-65.819
11
182.998
21
-65.819
0
LINE
8
FCrtYd
62
7
10
86.45
20
-95.9
11
94.15
21
-95.9
0
LINE
8
FCrtYd
62
7
10
94.15
20
-95.9
11
94.15
21
-83.7
0
LINE
8
FCrtYd
62
7
10
94.15
20
-83.7
11
86.45
21
-83.7
0
LINE
8
FCrtYd
62
7
10
86.45
20
-83.7
11
86.45
21
-95.9
0
LINE
8
FFab
62
5
10
86.7
20
-95.65
11
86.7
21
-83.95
0
LINE
8
FFab
62
5
10
93.9
20
-95.65
11
86.7
21
-95.65
0
LINE
8
FFab
62
5
10
86.7
20
-83.95
11
93.9
21
-83.95
0
LINE
8
FFab
62
5
10
93.9
20
-83.95
11
93.9
21
-95.65
0
CIRCLE
8
FFab
62
5
10
90.9
20
-96.4
40
0.1
0
LINE
8
FCrtYd
62
7
10
155.578
20
-98.681
11
166.748
21
-98.681
0
LINE
8
FCrtYd
62
7
10
166.748
20
-98.681
11
166.748
21
-104.011
0
LINE
8
FCrtYd
62
7
10
166.748
20
-104.011
11
155.578
21
-104.011
0
LINE
8
FCrtYd
62
7
10
155.578
20
-104.011
11
155.578
21
-98.681
0
LINE
8
FFab
62
5
10
155.828
20
-103.761
11
155.828
21
-98.931
0
LINE
8
FFab
62
5
10
155.828
20
-100.201
11
157.098
21
-98.931
0
LINE
8
FFab
62
5
10
155.828
20
-98.931
11
166.498
21
-98.931
0
LINE
8
FFab
62
5
10
166.498
20
-103.761
11
155.828
21
-103.761
0
LINE
8
FFab
62
5
10
166.498
20
-98.931
11
166.498
21
-103.761
0
LINE
8
FCrtYd
62
7
10
205.097
20
-111.873
11
210.497
21
-111.873
0
LINE
8
FCrtYd
62
7
10
210.497
20
-119.273
11
205.097
21
-119.273
0
LINE
8
FCrtYd
62
7
10
210.497
20
-111.873
11
210.497
21
-119.273
0
LINE
8
FCrtYd
62
7
10
205.097
20
-119.273
11
205.097
21
-111.873
0
LINE
8
FFab
62
5
10
205.347
20
-117.523
11
205.347
21
-113.623
0
LINE
8
FFab
62
5
10
210.247
20
-113.623
11
210.247
21
-117.523
0
LINE
8
FFab
62
5
10
210.247
20
-117.523
11
205.347
21
-117.523
0
LINE
8
FFab
62
5
10
205.347
20
-113.623
11
210.247
21
-113.623
0
LINE
8
FFab
62
5
10
208.977
20
-113.623
11
210.247
21
-114.893
0
LINE
8
FCrtYd
62
7
10
191.679
20
-71.931
11
191.679
21
-68.531
0
LINE
8
FCrtYd
62
7
10
193.639
20
-68.531
11
193.639
21
-71.931
0
LINE
8
FCrtYd
62
7
10
191.679
20
-68.531
11
193.639
21
-68.531
0
LINE
8
FCrtYd
62
7
10
193.639
20
-71.931
11
191.679
21
-71.931
0
LINE
8
FFab
62
5
10
193.284
20
-69.231
11
193.284
21
-71.231
0
LINE
8
FFab
62
5
10
192.034
20
-71.231
11
192.034
21
-69.231
0
LINE
8
FFab
62
5
10
192.034
20
-69.231
11
193.284
21
-69.231
0
LINE
8
FFab
62
5
10
193.284
20
-71.231
11
192.034
21
-71.231
0
CIRCLE
8
FCrtYd
62
7
10
206.55
20
-108.31
40
1.25
0
CIRCLE
8
FCrtYd
62
7
10
166.22
20
-89.45
40
1.25
0
LINE
8
FCrtYd
62
7
10
119.571
20
-100.049
11
119.571
21
-87.149
0
LINE
8
FCrtYd
62
7
10
102.171
20
-100.049
11
119.571
21
-100.049
0
LINE
8
FCrtYd
62
7
10
102.171
20
-87.149
11
102.171
21
-100.049
0
LINE
8
FCrtYd
62
7
10
119.571
20
-87.149
11
102.171
21
-87.149
0
LINE
8
FFab
62
5
10
118.571
20
-88.149
11
103.171
21
-88.149
0
LINE
8
FFab
62
5
10
103.171
20
-99.049
11
118.571
21
-99.049
0
LINE
8
FFab
62
5
10
103.171
20
-88.149
11
103.171
21
-99.049
0
LINE
8
FFab
62
5
10
118.571
20
-99.049
11
118.571
21
-88.149
0
CIRCLE
8
Cmts
62
1
10
83.69
20
-60.208
40
3.0
0
CIRCLE
8
FCrtYd
62
7
10
83.69
20
-60.208
40
3.25
0
LINE
8
FCrtYd
62
7
10
208.597
20
-120.323
11
210.497
21
-120.323
0
LINE
8
FCrtYd
62
7
10
210.497
20
-123.683
11
208.597
21
-123.683
0
LINE
8
FCrtYd
62
7
10
208.597
20
-123.683
11
208.597
21
-120.323
0
LINE
8
FCrtYd
62
7
10
210.497
20
-120.323
11
210.497
21
-123.683
0
LINE
8
FFab
62
5
10
208.922
20
-123.003
11
208.922
21
-121.003
0
LINE
8
FFab
62
5
10
210.172
20
-121.003
11
210.172
21
-123.003
0
LINE
8
FFab
62
5
10
208.922
20
-121.003
11
210.172
21
-121.003
0
LINE
8
FFab
62
5
10
210.172
20
-123.003
11
208.922
21
-123.003
0
CIRCLE
8
FCrtYd
62
7
10
202.81
20
-125.65
40
1.25
0
LINE
8
FCrtYd
62
7
10
148.968
20
-119.842
11
148.968
21
-125.172
0
LINE
8
FCrtYd
62
7
10
148.968
20
-125.172
11
137.798
21
-125.172
0
LINE
8
FCrtYd
62
7
10
137.798
20
-119.842
11
148.968
21
-119.842
0
LINE
8
FCrtYd
62
7
10
137.798
20
-125.172
11
137.798
21
-119.842
0
LINE
8
FFab
62
5
10
138.048
20
-120.092
11
148.718
21
-120.092
0
LINE
8
FFab
62
5
10
138.048
20
-121.362
11
139.318
21
-120.092
0
LINE
8
FFab
62
5
10
138.048
20
-124.922
11
138.048
21
-120.092
0
LINE
8
FFab
62
5
10
148.718
20
-124.922
11
138.048
21
-124.922
0
LINE
8
FFab
62
5
10
148.718
20
-120.092
11
148.718
21
-124.922
0
LINE
8
FCrtYd
62
7
10
137.798
20
-119.124
11
137.798
21
-113.794
0
LINE
8
FCrtYd
62
7
10
148.968
20
-113.794
11
148.968
21
-119.124
0
LINE
8
FCrtYd
62
7
10
148.968
20
-119.124
11
137.798
21
-119.124
0
LINE
8
FCrtYd
62
7
10
137.798
20
-113.794
11
148.968
21
-113.794
0
LINE
8
FFab
62
5
10
148.718
20
-118.874
11
138.048
21
-118.874
0
LINE
8
FFab
62
5
10
138.048
20
-114.044
11
148.718
21
-114.044
0
LINE
8
FFab
62
5
10
148.718
20
-114.044
11
148.718
21
-118.874
0
LINE
8
FFab
62
5
10
138.048
20
-118.874
11
138.048
21
-114.044
0
LINE
8
FFab
62
5
10
138.048
20
-115.314
11
139.318
21
-114.044
0
CIRCLE
8
FCrtYd
62
7
10
199.06
20
-125.56
40
1.25
0
LINE
8
FCrtYd
62
7
10
137.224
20
-100.049
11
137.224
21
-87.149
0
LINE
8
FCrtYd
62
7
10
137.224
20
-87.149
11
119.824
21
-87.149
0
LINE
8
FCrtYd
62
7
10
119.824
20
-100.049
11
137.224
21
-100.049
0
LINE
8
FCrtYd
62
7
10
119.824
20
-87.149
11
119.824
21
-100.049
0
LINE
8
FFab
62
5
10
136.224
20
-99.049
11
136.224
21
-88.149
0
LINE
8
FFab
62
5
10
120.824
20
-99.049
11
136.224
21
-99.049
0
LINE
8
FFab
62
5
10
136.224
20
-88.149
11
120.824
21
-88.149
0
LINE
8
FFab
62
5
10
120.824
20
-88.149
11
120.824
21
-99.049
0
CIRCLE
8
FCrtYd
62
7
10
172.64
20
-83.5
40
1.25
0
LINE
8
FCrtYd
62
7
10
198.178
20
-76.418
11
198.178
21
-74.458
0
LINE
8
FCrtYd
62
7
10
198.178
20
-74.458
11
201.578
21
-74.458
0
LINE
8
FCrtYd
62
7
10
201.578
20
-74.458
11
201.578
21
-76.418
0
LINE
8
FCrtYd
62
7
10
201.578
20
-76.418
11
198.178
21
-76.418
0
LINE
8
FFab
62
5
10
198.878
20
-74.813
11
200.878
21
-74.813
0
LINE
8
FFab
62
5
10
200.878
20
-74.813
11
200.878
21
-76.063
0
LINE
8
FFab
62
5
10
198.878
20
-76.063
11
198.878
21
-74.813
0
LINE
8
FFab
62
5
10
200.878
20
-76.063
11
198.878
21
-76.063
0
LINE
8
FCrtYd
62
7
10
168.707
20
-69.039
11
168.707
21
-72.439
0
LINE
8
FCrtYd
62
7
10
166.747
20
-72.439
11
166.747
21
-69.039
0
LINE
8
FCrtYd
62
7
10
168.707
20
-72.439
11
166.747
21
-72.439
0
LINE
8
FCrtYd
62
7
10
166.747
20
-69.039
11
168.707
21
-69.039
0
LINE
8
FFab
62
5
10
168.352
20
-69.739
11
168.352
21
-71.739
0
LINE
8
FFab
62
5
10
167.102
20
-69.739
11
168.352
21
-69.739
0
LINE
8
FFab
62
5
10
168.352
20
-71.739
11
167.102
21
-71.739
0
LINE
8
FFab
62
5
10
167.102
20
-71.739
11
167.102
21
-69.739
0
LINE
8
FCrtYd
62
7
10
161.61
20
-117.446
11
163.51
21
-117.446
0
LINE
8
FCrtYd
62
7
10
163.51
20
-117.446
11
163.51
21
-120.806
0
LINE
8
FCrtYd
62
7
10
163.51
20
-120.806
11
161.61
21
-120.806
0
LINE
8
FCrtYd
62
7
10
161.61
20
-120.806
11
161.61
21
-117.446
0
LINE
8
FFab
62
5
10
161.935
20
-120.126
11
161.935
21
-118.126
0
LINE
8
FFab
62
5
10
161.935
20
-118.126
11
163.185
21
-118.126
0
LINE
8
FFab
62
5
10
163.185
20
-118.126
11
163.185
21
-120.126
0
LINE
8
FFab
62
5
10
163.185
20
-120.126
11
161.935
21
-120.126
0
LINE
8
FCrtYd
62
7
10
197.3
20
-129.95
11
97.2
21
-129.95
0
LINE
8
FCrtYd
62
7
10
197.3
20
-133.55
11
197.3
21
-129.95
0
LINE
8
FCrtYd
62
7
10
97.2
20
-133.55
11
197.3
21
-133.55
0
LINE
8
FCrtYd
62
7
10
97.2
20
-129.95
11
97.2
21
-133.55
0
LINE
8
FFab
62
5
10
97.73
20
-130.48
11
196.79
21
-130.48
0
LINE
8
FFab
62
5
10
97.73
20
-132.385
11
97.73
21
-130.48
0
LINE
8
FFab
62
5
10
98.365
20
-133.02
11
97.73
21
-132.385
0
LINE
8
FFab
62
5
10
196.79
20
-133.02
11
98.365
21
-133.02
0
LINE
8
FFab
62
5
10
196.79
20
-130.48
11
196.79
21
-133.02
0
CIRCLE
8
FCrtYd
62
7
10
212.5
20
-113.31
40
1.25
0
LINE
8
FCrtYd
62
7
10
137.604
20
-100.049
11
155.004
21
-100.049
0
LINE
8
FCrtYd
62
7
10
155.004
20
-87.149
11
137.604
21
-87.149
0
LINE
8
FCrtYd
62
7
10
137.604
20
-87.149
11
137.604
21
-100.049
0
LINE
8
FCrtYd
62
7
10
155.004
20
-100.049
11
155.004
21
-87.149
0
LINE
8
FFab
62
5
10
138.604
20
-88.149
11
138.604
21
-99.049
0
LINE
8
FFab
62
5
10
154.004
20
-88.149
11
138.604
21
-88.149
0
LINE
8
FFab
62
5
10
154.004
20
-99.049
11
154.004
21
-88.149
0
LINE
8
FFab
62
5
10
138.604
20
-99.049
11
154.004
21
-99.049
0
LINE
8
FCrtYd
62
7
10
86.45
20
-69.1625
11
86.45
21
-81.3625
0
LINE
8
FCrtYd
62
7
10
86.45
20
-81.3625
11
94.15
21
-81.3625
0
LINE
8
FCrtYd
62
7
10
94.15
20
-69.1625
11
86.45
21
-69.1625
0
LINE
8
FCrtYd
62
7
10
94.15
20
-81.3625
11
94.15
21
-69.1625
0
LINE
8
FFab
62
5
10
86.7
20
-81.1125
11
86.7
21
-69.4125
0
LINE
8
FFab
62
5
10
93.9
20
-81.1125
11
86.7
21
-81.1125
0
LINE
8
FFab
62
5
10
93.9
20
-69.4125
11
93.9
21
-81.1125
0
LINE
8
FFab
62
5
10
86.7
20
-69.4125
11
93.9
21
-69.4125
0
CIRCLE
8
FFab
62
5
10
90.9
20
-81.8625
40
0.1
0
LINE
8
FCrtYd
62
7
10
189.4
20
-93.66
11
189.4
21
-96.96
0
LINE
8
FCrtYd
62
7
10
194.2
20
-93.66
11
189.4
21
-93.66
0
LINE
8
FCrtYd
62
7
10
189.4
20
-96.96
11
194.2
21
-96.96
0
LINE
8
FCrtYd
62
7
10
194.2
20
-96.96
11
194.2
21
-93.66
0
LINE
8
FFab
62
5
10
193.3
20
-96.56
11
190.3
21
-96.56
0
LINE
8
FFab
62
5
10
190.3
20
-94.06
11
193.3
21
-94.06
0
LINE
8
FFab
62
5
10
193.3
20
-94.06
11
193.3
21
-96.56
0
LINE
8
FFab
62
5
10
190.3
20
-96.56
11
190.3
21
-94.06
0
CIRCLE
8
FFab
62
5
10
191.8
20
-95.31
40
0.75
0
LINE
8
FCrtYd
62
7
10
147.33
20
-91.35
11
147.33
21
-62.15
0
LINE
8
FCrtYd
62
7
10
147.33
20
-62.15
11
201.73
21
-62.15
0
LINE
8
FCrtYd
62
7
10
201.73
20
-62.15
11
201.73
21
-91.35
0
LINE
8
FCrtYd
62
7
10
201.73
20
-91.35
11
147.33
21
-91.35
0
LINE
8
FFab
62
5
10
148.33
20
-63.15
11
200.73
21
-63.15
0
LINE
8
FFab
62
5
10
200.73
20
-90.35
11
148.33
21
-90.35
0
LINE
8
FFab
62
5
10
148.33
20
-90.35
11
148.33
21
-63.15
0
LINE
8
FFab
62
5
10
200.73
20
-63.15
11
200.73
21
-90.35
0
LINE
8
FCrtYd
62
7
10
163.51
20
-124.7195
11
161.61
21
-124.7195
0
LINE
8
FCrtYd
62
7
10
161.61
20
-124.7195
11
161.61
21
-121.3595
0
LINE
8
FCrtYd
62
7
10
161.61
20
-121.3595
11
163.51
21
-121.3595
0
LINE
8
FCrtYd
62
7
10
163.51
20
-121.3595
11
163.51
21
-124.7195
0
LINE
8
FFab
62
5
10
161.935
20
-122.0395
11
163.185
21
-122.0395
0
LINE
8
FFab
62
5
10
161.935
20
-124.0395
11
161.935
21
-122.0395
0
LINE
8
FFab
62
5
10
163.185
20
-124.0395
11
161.935
21
-124.0395
0
LINE
8
FFab
62
5
10
163.185
20
-122.0395
11
163.185
21
-124.0395
0
LINE
8
FCrtYd
62
7
10
155.578
20
-116.203
11
155.578
21
-110.873
0
LINE
8
FCrtYd
62
7
10
166.748
20
-110.873
11
166.748
21
-116.203
0
LINE
8
FCrtYd
62
7
10
166.748
20
-116.203
11
155.578
21
-116.203
0
LINE
8
FCrtYd
62
7
10
155.578
20
-110.873
11
166.748
21
-110.873
0
LINE
8
FFab
62
5
10
166.498
20
-115.953
11
155.828
21
-115.953
0
LINE
8
FFab
62
5
10
166.498
20
-111.123
11
166.498
21
-115.953
0
LINE
8
FFab
62
5
10
155.828
20
-112.393
11
157.098
21
-111.123
0
LINE
8
FFab
62
5
10
155.828
20
-111.123
11
166.498
21
-111.123
0
LINE
8
FFab
62
5
10
155.828
20
-115.953
11
155.828
21
-111.123
0
CIRCLE
8
Cmts
62
1
10
207.418
20
-134.942
40
3.0
0
CIRCLE
8
FCrtYd
62
7
10
207.418
20
-134.942
40
3.25
0
LINE
8
FCrtYd
62
7
10
158.938
20
-120.806
11
157.038
21
-120.806
0
LINE
8
FCrtYd
62
7
10
157.038
20
-120.806
11
157.038
21
-117.446
0
LINE
8
FCrtYd
62
7
10
158.938
20
-117.446
11
158.938
21
-120.806
0
LINE
8
FCrtYd
62
7
10
157.038
20
-117.446
11
158.938
21
-117.446
0
LINE
8
FFab
62
5
10
157.363
20
-118.126
11
158.613
21
-118.126
0
LINE
8
FFab
62
5
10
158.613
20
-120.126
11
157.363
21
-120.126
0
LINE
8
FFab
62
5
10
157.363
20
-120.126
11
157.363
21
-118.126
0
LINE
8
FFab
62
5
10
158.613
20
-118.126
11
158.613
21
-120.126
0
CIRCLE
8
FCrtYd
62
7
10
209.7
20
-108.25
40
1.25
0
LINE
8
FCrtYd
62
7
10
205.42
20
-71.98
11
205.42
21
-75.34
0
LINE
8
FCrtYd
62
7
10
203.52
20
-75.34
11
203.52
21
-71.98
0
LINE
8
FCrtYd
62
7
10
203.52
20
-71.98
11
205.42
21
-71.98
0
LINE
8
FCrtYd
62
7
10
205.42
20
-75.34
11
203.52
21
-75.34
0
LINE
8
FFab
62
5
10
205.095
20
-74.66
11
203.845
21
-74.66
0
LINE
8
FFab
62
5
10
203.845
20
-74.66
11
203.845
21
-72.66
0
LINE
8
FFab
62
5
10
203.845
20
-72.66
11
205.095
21
-72.66
0
LINE
8
FFab
62
5
10
205.095
20
-72.66
11
205.095
21
-74.66
0
CIRCLE
8
FCrtYd
62
7
10
166.01
20
-118.81
40
1.25
0
LINE
8
FCrtYd
62
7
10
159.324
20
-121.3595
11
161.224
21
-121.3595
0
LINE
8
FCrtYd
62
7
10
159.324
20
-124.7195
11
159.324
21
-121.3595
0
LINE
8
FCrtYd
62
7
10
161.224
20
-124.7195
11
159.324
21
-124.7195
0
LINE
8
FCrtYd
62
7
10
161.224
20
-121.3595
11
161.224
21
-124.7195
0
LINE
8
FFab
62
5
10
159.649
20
-124.0395
11
159.649
21
-122.0395
0
LINE
8
FFab
62
5
10
160.899
20
-124.0395
11
159.649
21
-124.0395
0
LINE
8
FFab
62
5
10
159.649
20
-122.0395
11
160.899
21
-122.0395
0
LINE
8
FFab
62
5
10
160.899
20
-122.0395
11
160.899
21
-124.0395
0
CIRCLE
8
FCrtYd
62
7
10
162.98
20
-65.19
40
1.25
0
LINE
8
FCrtYd
62
7
10
158.938
20
-124.743
11
157.038
21
-124.743
0
LINE
8
FCrtYd
62
7
10
158.938
20
-121.383
11
158.938
21
-124.743
0
LINE
8
FCrtYd
62
7
10
157.038
20
-121.383
11
158.938
21
-121.383
0
LINE
8
FCrtYd
62
7
10
157.038
20
-124.743
11
157.038
21
-121.383
0
LINE
8
FFab
62
5
10
158.613
20
-122.063
11
158.613
21
-124.063
0
LINE
8
FFab
62
5
10
157.363
20
-124.063
11
157.363
21
-122.063
0
LINE
8
FFab
62
5
10
157.363
20
-122.063
11
158.613
21
-122.063
0
LINE
8
FFab
62
5
10
158.613
20
-124.063
11
157.363
21
-124.063
0
CIRCLE
8
FCrtYd
62
7
10
203.46
20
-108.38
40
1.25
0
LINE
8
FCrtYd
62
7
10
166.748
20
-110.234
11
155.578
21
-110.234
0
LINE
8
FCrtYd
62
7
10
155.578
20
-104.904
11
166.748
21
-104.904
0
LINE
8
FCrtYd
62
7
10
166.748
20
-104.904
11
166.748
21
-110.234
0
LINE
8
FCrtYd
62
7
10
155.578
20
-110.234
11
155.578
21
-104.904
0
LINE
8
FFab
62
5
10
155.828
20
-105.154
11
166.498
21
-105.154
0
LINE
8
FFab
62
5
10
166.498
20
-109.984
11
155.828
21
-109.984
0
LINE
8
FFab
62
5
10
155.828
20
-109.984
11
155.828
21
-105.154
0
LINE
8
FFab
62
5
10
155.828
20
-106.424
11
157.098
21
-105.154
0
LINE
8
FFab
62
5
10
166.498
20
-105.154
11
166.498
21
-109.984
0
LINE
8
FCrtYd
62
7
10
205.42
20
-70.895
11
203.52
21
-70.895
0
LINE
8
FCrtYd
62
7
10
203.52
20
-67.535
11
205.42
21
-67.535
0
LINE
8
FCrtYd
62
7
10
205.42
20
-67.535
11
205.42
21
-70.895
0
LINE
8
FCrtYd
62
7
10
203.52
20
-70.895
11
203.52
21
-67.535
0
LINE
8
FFab
62
5
10
203.845
20
-68.215
11
205.095
21
-68.215
0
LINE
8
FFab
62
5
10
205.095
20
-70.215
11
203.845
21
-70.215
0
LINE
8
FFab
62
5
10
203.845
20
-70.215
11
203.845
21
-68.215
0
LINE
8
FFab
62
5
10
205.095
20
-68.215
11
205.095
21
-70.215
0
ARC
8
Edge
62
2
10
214.53
20
-139.895
30
0
40
1.458024
50
-325.125021
51
-112.500021
0
LINE
8
Edge
62
2
10
77.34
20
-133.995
11
77.24
21
-139.905
0
LINE
8
Edge
62
2
10
212.725
20
-53.34
11
92.075
21
-53.34
0
LINE
8
Edge
62
2
10
214.63
20
-133.985
11
214.63
21
-55.245
0
LINE
8
Edge
62
2
10
92.075
20
-53.34
11
79.245
21
-53.35
0
ARC
8
Edge
62
2
10
212.725
20
-53.34
30
0
40
1.458024
50
-237.130021
51
-22.500021
0
ARC
8
Edge
62
2
10
79.145
20
-141.81
30
0
40
1.458024
50
80.259979
51
157.499979
0
LINE
8
Edge
62
2
10
214.63
20
-133.985
11
214.53
21
-139.895
0
LINE
8
Edge
62
2
10
77.34
20
-55.255
11
77.34
21
-133.995
0
ARC
8
Edge
62
2
10
77.34
20
-55.255
30
0
40
1.458024
50
-11.745021
51
67.499979
0
LINE
8
Edge
62
2
10
91.975
20
-141.8
11
212.625
21
-141.8
0
LINE
8
Edge
62
2
10
91.975
20
-141.8
11
79.145
21
-141.81
0
ENDSEC
0
EOF
